<?xml version="1.0" encoding="utf-8"?>
<!-- Svg Vector Icons : http://www.onlinewebfonts.com/icon -->
<!DOCTYPE svg PUBLIC "-//W3C//DTD SVG 1.1//EN" "http://www.w3.org/Graphics/SVG/1.1/DTD/svg11.dtd">
<svg version="1.1" xmlns="http://www.w3.org/2000/svg" xmlns:xlink="http://www.w3.org/1999/xlink" x="0px" y="0px" viewBox="0 0 1000 1000" enable-background="new 0 0 1000 1000" xml:space="preserve">
<metadata> Svg Vector Icons : http://www.onlinewebfonts.com/icon </metadata>
<g><path d="M678.2,232.7V745c0,98.4-79.7,178.2-178.2,178.2c-98.4,0-178.2-79.7-178.2-178.2V188.2c0-61.5,49.9-111.4,111.4-111.4s111.4,49.9,111.4,111.4v467.7c0,24.5-20,44.5-44.5,44.5c-24.5,0-44.5-20-44.5-44.5V232.7h-66.8v423.2c0,61.5,49.9,111.4,111.4,111.4s111.4-49.9,111.4-111.4V188.2C611.4,89.7,531.6,10,433.2,10C334.7,10,255,89.7,255,188.2V745c0,135.4,109.6,245,245,245s245-109.6,245-245V232.7H678.2z"/></g>
</svg>