<?xml version="1.0" encoding="utf-8"?>
<!-- Svg Vector Icons : http://www.onlinewebfonts.com/icon -->
<!DOCTYPE svg PUBLIC "-//W3C//DTD SVG 1.1//EN" "http://www.w3.org/Graphics/SVG/1.1/DTD/svg11.dtd">
<svg version="1.1" xmlns="http://www.w3.org/2000/svg" xmlns:xlink="http://www.w3.org/1999/xlink" x="0px" y="0px" viewBox="0 0 1000 1000" enable-background="new 0 0 1000 1000" xml:space="preserve">
<metadata> Svg Vector Icons : http://www.onlinewebfonts.com/icon </metadata>
<g><path d="M827.6,500.5c-1.1,0-2.2,0-3.3,0c0-0.8,0-1.5,0-2.3c0-178.7-144.9-323.6-323.6-323.6c-153.5,0-282,106.8-315.2,250.2C86.6,436.9,10,521.2,10,623.4c0,110.5,89.6,200.1,200.1,200.1c0.1,0,0.3,0,0.4,0v0l210.2,0.6V659.7c0-8.7-7-15.7-15.7-15.7h-83.9c-12.3,0-22.3-10-22.3-22.3c0-3.9,1-7.6,2.8-10.8l0,0l0,0c1.3-2.3,2.9-4.3,4.9-5.9l172.7-211.5c1.6-2.9,3.7-5.5,6.2-7.6l0,0l0,0c4.5-3.8,10.3-6.1,16.6-6.1c6.7,0,12.8,2.6,17.4,6.7l0,0l0.1,0.1c1.8,1.7,3.4,3.6,4.7,5.8l174.8,214c0.8,0.9,1.6,1.8,2.3,2.8l0,0h0c2.4,3.6,3.9,7.9,3.9,12.5c0,12.3-10,22.3-22.3,22.3h-83.4c-8.7,0-15.7,7-15.7,15.7v164.9l243.7,0.7c89.7,0,162.4-72.7,162.4-162.4C990,573.2,917.3,500.5,827.6,500.5z"/></g>
</svg>